<mxfile host="app.diagrams.net" modified="2023-04-23T08:18:18.935Z" agent="Mozilla/5.0 (Macintosh; Intel Mac OS X 10_15_7) AppleWebKit/537.36 (KHTML, like Gecko) Chrome/112.0.0.0 Safari/537.36" etag="epHhlfjILyjQpgFuBEFp" version="21.2.1" type="github">
  <diagram name="第 1 页" id="l1hzwmIRR9jf0Bb3zMCW">
    <mxGraphModel dx="909" dy="595" grid="1" gridSize="10" guides="1" tooltips="1" connect="1" arrows="1" fold="1" page="1" pageScale="1" pageWidth="827" pageHeight="1169" background="none" math="0" shadow="0">
      <root>
        <mxCell id="0" />
        <mxCell id="1" parent="0" />
        <mxCell id="l1PFlF_tU-y6S5hCckUQ-2" value="" style="rounded=0;whiteSpace=wrap;html=1;" vertex="1" parent="1">
          <mxGeometry x="120" y="80" width="290" height="500" as="geometry" />
        </mxCell>
        <mxCell id="l1PFlF_tU-y6S5hCckUQ-3" value="&lt;font style=&quot;font-size: 14px;&quot;&gt;环形进度条&lt;br&gt;显示健康评估分数&lt;/font&gt;" style="ellipse;whiteSpace=wrap;html=1;aspect=fixed;" vertex="1" parent="1">
          <mxGeometry x="190" y="110" width="150" height="150" as="geometry" />
        </mxCell>
        <mxCell id="l1PFlF_tU-y6S5hCckUQ-5" value="" style="rounded=0;whiteSpace=wrap;html=1;" vertex="1" parent="1">
          <mxGeometry x="130" y="290" width="270" height="280" as="geometry" />
        </mxCell>
        <mxCell id="l1PFlF_tU-y6S5hCckUQ-7" value="显示设备名称" style="rounded=1;whiteSpace=wrap;html=1;align=left;" vertex="1" parent="1">
          <mxGeometry x="140" y="300" width="250" height="30" as="geometry" />
        </mxCell>
        <mxCell id="l1PFlF_tU-y6S5hCckUQ-8" value="显示设备状态：已连接（显示电量）/ 未连接" style="rounded=1;whiteSpace=wrap;html=1;align=left;" vertex="1" parent="1">
          <mxGeometry x="140" y="340" width="250" height="30" as="geometry" />
        </mxCell>
        <mxCell id="l1PFlF_tU-y6S5hCckUQ-9" value="" style="rounded=1;whiteSpace=wrap;html=1;align=left;" vertex="1" parent="1">
          <mxGeometry x="140" y="380" width="250" height="30" as="geometry" />
        </mxCell>
        <mxCell id="l1PFlF_tU-y6S5hCckUQ-10" value="" style="endArrow=classic;html=1;rounded=0;" edge="1" parent="1" target="l1PFlF_tU-y6S5hCckUQ-3">
          <mxGeometry width="50" height="50" relative="1" as="geometry">
            <mxPoint x="470" y="110" as="sourcePoint" />
            <mxPoint x="500" y="90" as="targetPoint" />
          </mxGeometry>
        </mxCell>
        <mxCell id="l1PFlF_tU-y6S5hCckUQ-11" value="&lt;font style=&quot;font-size: 15px;&quot;&gt;如果评估为红&lt;br&gt;提示健康状态不良，提供可以跳转至健康建议的图标&lt;/font&gt;" style="ellipse;whiteSpace=wrap;html=1;" vertex="1" parent="1">
          <mxGeometry x="470" y="40" width="220" height="130" as="geometry" />
        </mxCell>
        <mxCell id="l1PFlF_tU-y6S5hCckUQ-12" value="健康数据详情" style="rounded=0;whiteSpace=wrap;html=1;" vertex="1" parent="1">
          <mxGeometry x="225" y="210" width="80" height="30" as="geometry" />
        </mxCell>
        <mxCell id="l1PFlF_tU-y6S5hCckUQ-13" value="" style="endArrow=classic;html=1;rounded=0;" edge="1" parent="1" target="l1PFlF_tU-y6S5hCckUQ-12">
          <mxGeometry width="50" height="50" relative="1" as="geometry">
            <mxPoint x="460" y="240" as="sourcePoint" />
            <mxPoint x="510" y="190" as="targetPoint" />
          </mxGeometry>
        </mxCell>
        <mxCell id="l1PFlF_tU-y6S5hCckUQ-15" value="&lt;font style=&quot;font-size: 14px;&quot;&gt;点击跳转至折线图&lt;/font&gt;" style="ellipse;whiteSpace=wrap;html=1;" vertex="1" parent="1">
          <mxGeometry x="460" y="200" width="120" height="80" as="geometry" />
        </mxCell>
      </root>
    </mxGraphModel>
  </diagram>
</mxfile>
